<?xml version="1.0" encoding="UTF-8" standalone="no"?>
<!DOCTYPE svg PUBLIC "-//W3C//DTD SVG 1.1//EN" "http://www.w3.org/Graphics/SVG/1.1/DTD/svg11.dtd">
<!-- Created with Vectornator (http://vectornator.io/) -->
<svg height="100%" stroke-miterlimit="10" style="fill-rule:nonzero;clip-rule:evenodd;stroke-linecap:round;stroke-linejoin:round;" version="1.1" viewBox="0 0 500 500" width="100%" xml:space="preserve" xmlns="http://www.w3.org/2000/svg" xmlns:vectornator="http://vectornator.io" xmlns:xlink="http://www.w3.org/1999/xlink">
<defs/>
<clipPath id="ArtboardFrame">
<rect height="500" width="500" x="0" y="0"/>
</clipPath>
<g clip-path="url(#ArtboardFrame)" id="Untitled" vectornator:layerName="Untitled">
<path d="M0 0L500 0.0350131" fill="#000000" fill-rule="nonzero" opacity="1" stroke="none"/>
<path d="M371.628 108.475C371.023 106.822 371.743 104.963 372.582 103.436C375.444 98.2268 379.748 94.1774 383.977 90.2234C386.748 87.6324 389.524 85.0367 392.514 82.7518C394.521 81.2173 396.634 79.8153 398.411 77.9747C401.756 74.5112 404.181 69.3496 408.685 68.2515C411.64 67.5309 414.942 69.0428 416.537 71.8473C418.133 74.6518 417.906 78.5459 415.998 81.1081C415.217 82.1567 414.209 82.9709 413.21 83.7706C402.58 92.2834 391.751 100.501 380.737 108.413C379.275 109.463 377.746 110.534 376.012 110.793C374.277 111.052 372.277 110.246 371.628 108.475" fill="#000000" fill-rule="nonzero" opacity="1" stroke="none"/>
<path d="M116.908 102.256C118.234 104.16 119.493 106.714 118.437 108.808C117.754 110.161 116.246 110.833 114.829 110.793C113.412 110.752 112.069 110.115 110.82 109.386C108.857 108.24 107.028 106.845 105.204 105.454C95.8888 98.3496 86.5734 91.2448 77.2581 84.14C76.1483 83.2936 75.0237 82.4324 74.164 81.2918C72.3959 78.946 71.9895 75.4795 73.1598 72.7249C74.3301 69.9704 77.019 68.0644 79.805 68.0147C82.8819 67.9597 85.7373 70.0193 87.5924 72.694C88.3597 73.8002 88.992 75.0172 89.8229 76.0674C90.751 77.2406 91.9021 78.1748 93.0445 79.0967C101.636 86.0298 110.446 92.9767 116.908 102.256M117.154 108.398C117.21 104.218 114.4 100.713 111.657 97.7895C106.519 92.3142 101 87.2646 95.1613 82.6985C93.3544 81.2853 91.5051 79.9075 89.9468 78.1785C86.9655 74.8705 84.5592 70.007 80.3184 69.6211C78.2876 69.4362 76.1989 70.4971 75.0234 72.3106C73.8478 74.1241 73.6288 76.6231 74.4681 78.6462C75.3117 80.6797 77.0458 82.0764 78.7116 83.3753C89.2454 91.5892 99.9095 99.605 110.697 107.418C112.665 108.843 115.47 110.203 117.154 108.398Z" fill="#000000" fill-rule="nonzero" opacity="1" stroke="none"/>
<path d="M473.911 238.996C477.183 239.909 479.753 243.257 479.998 246.928C480.243 250.599 478.145 254.317 475.028 255.736C473.22 256.56 471.21 256.644 469.251 256.705C458.359 257.039 447.423 256.971 436.618 255.445C434.313 255.12 431.931 254.693 430.006 253.275C428.081 251.857 426.749 249.169 427.47 246.762C428.452 243.487 432.257 242.619 435.405 242.292C443.856 241.414 452.307 240.537 460.759 239.659C463.279 239.397 465.8 239.135 468.32 238.873C470.185 238.679 472.095 238.489 473.911 238.996" fill="#000000" fill-rule="nonzero" opacity="1" stroke="none"/>
<path d="M17.0475 238.821C18.1016 238.69 19.167 238.791 20.2239 238.893C31.4262 239.967 42.6285 241.041 53.8308 242.116C55.7097 242.296 57.6312 242.488 59.3458 243.344C61.0603 244.201 62.5572 245.866 62.7729 247.907C63.0073 250.125 61.6644 252.264 59.923 253.442C58.1815 254.62 56.1014 255.021 54.0718 255.335C44.3158 256.846 34.425 256.895 24.571 256.941C20.0708 256.962 14.9754 256.706 12.0107 253.018C10.1262 250.674 9.55635 247.167 10.5876 244.26C11.6188 241.354 14.2056 239.176 17.0475 238.821M15.596 240.952C11.9442 242.533 10.4741 248.225 12.8337 251.648C15.2181 255.107 19.794 255.412 23.7648 255.406C34.09 255.392 44.4627 255.373 54.6671 253.657C56.294 253.384 57.9696 253.044 59.3315 252.037C60.6934 251.029 61.663 249.176 61.2419 247.443C60.6102 244.843 57.5968 244.117 55.1378 243.873C46.8775 243.051 38.6171 242.228 30.3568 241.406C27.4208 241.114 24.4847 240.822 21.5487 240.53C19.549 240.331 17.4621 240.145 15.596 240.952Z" fill="#000000" fill-rule="nonzero" opacity="1" stroke="none"/>
<path d="M229.833 497.062C229.216 497.98 228.572 498.92 227.675 499.503C226.778 500.086 225.556 500.227 224.725 499.54C223.336 498.392 223.877 496.026 224.55 494.275C232.613 473.298 241.031 451.737 255.858 435.727C256.883 434.62 258.011 433.498 259.422 433.163C260.832 432.827 262.569 433.614 262.852 435.157C263.034 436.152 262.59 437.144 262.159 438.044C260.384 441.75 258.61 445.456 256.836 449.162C255.038 452.918 253.24 456.674 251.369 460.387C244.957 473.119 237.701 485.339 229.833 497.062M259.1 440.316C259.865 439.362 258.785 437.763 257.623 437.759C256.46 437.756 255.496 438.693 254.676 439.591C240.034 455.621 231.677 477.041 223.658 497.899C223.377 498.628 223.092 499.393 223.159 500.18C223.227 500.967 223.777 501.765 224.502 501.771C235.078 486.175 245.006 469.959 252.66 452.454C254.512 448.22 256.268 443.847 259.1 440.316Z" fill="#000000" fill-rule="nonzero" opacity="1" stroke="none"/>
<path d="M221.581 478.146C214.078 476.507 206.792 473.686 200.022 469.798C198.002 468.638 195.831 467.1 195.38 464.661C195.019 462.708 195.929 460.68 197.273 459.329C198.616 457.978 200.341 457.181 202.042 456.448C209.607 453.188 217.446 450.682 225.428 448.971C226.105 448.826 226.849 448.697 227.45 449.065C228.387 449.639 228.457 451.179 227.875 452.162C227.294 453.146 226.281 453.705 225.316 454.219C219.49 457.324 213.663 460.428 207.836 463.533C212.727 466.623 217.617 469.712 222.507 472.802C223.954 473.716 225.469 474.705 226.275 476.302C226.024 478.327 223.42 478.548 221.581 478.146" fill="#000000" fill-rule="nonzero" opacity="1" stroke="none"/>
<path d="M268.502 478.114C266.837 478.561 264.433 478.527 264.139 476.686C263.92 475.312 265.2 474.261 266.312 473.57C271.474 470.364 276.637 467.157 281.799 463.951C282.048 463.372 281.392 462.841 280.851 462.593C275.206 460.009 269.691 457.087 264.34 453.845C263.583 453.387 262.804 452.898 262.301 452.13C261.798 451.361 261.652 450.231 262.197 449.497C262.909 448.54 264.275 448.741 265.374 449.032C273.563 451.199 281.81 453.388 289.473 457.209C292.01 458.475 294.827 460.517 294.801 463.557C294.779 466.106 292.718 468.032 290.73 469.378C284.011 473.928 276.184 476.053 268.502 478.114" fill="#000000" fill-rule="nonzero" opacity="1" stroke="none"/>
<path d="M179.96 66.2356C177.908 66.0829 176.432 64.0934 175.265 62.2488C170.077 54.0533 165.629 45.3021 162.007 36.1625C160.898 33.3639 159.878 30.0738 161.192 27.3824C162.711 24.2697 167.12 23.7254 169.546 26.058C170.731 27.1972 171.455 28.7856 172.151 30.3318C175.607 38.0192 179.063 45.7067 182.519 53.3942C183.599 55.7974 184.707 58.3432 184.539 61.0129C184.372 63.6826 182.411 66.4178 179.96 66.2356M180.625 64.619C182.579 64.2523 183.177 61.4684 182.897 59.3296C182.452 55.9436 180.949 52.8461 179.433 49.8506C176.496 44.0443 173.406 38.2933 171.228 32.1027C170.502 30.0383 169.745 27.75 167.977 26.6648C165.526 25.1606 161.938 27.4067 161.897 30.4709C161.881 31.647 162.291 32.7751 162.705 33.8612C166.445 43.6571 171.132 53.0236 176.663 61.7558C177.617 63.2612 178.97 64.9295 180.625 64.619Z" fill="#000000" fill-rule="nonzero" opacity="1" stroke="none"/>
<path d="M58.7886 345.243C60.4277 345.339 62.0997 345.505 63.6001 346.23C65.1005 346.956 66.4212 348.34 66.7403 350.094C67.0921 352.028 66.153 354.032 64.7798 355.316C63.4065 356.6 61.6577 357.292 59.9308 357.882C50.0563 361.256 39.6325 362.139 29.3138 363.001C26.3276 363.25 23.1714 363.466 20.4911 362.01C16.9779 360.102 15.0814 355.24 16.2591 351.161C17.4368 347.081 21.5464 344.277 25.4298 344.903C36.4432 346.678 47.6715 344.588 58.7886 345.243M60.9904 355.752C63.0979 354.934 65.5272 353.422 65.4635 350.986C65.4228 349.426 64.264 348.113 62.9383 347.522C61.6126 346.932 60.1388 346.918 58.7066 346.912C47.5743 346.871 36.4421 346.83 25.3098 346.788C24.3959 346.785 23.474 346.782 22.5792 346.985C19.9717 347.575 17.8153 350.05 17.4109 352.918C17.0065 355.785 18.3814 358.852 20.706 360.267C22.8402 361.567 25.4299 361.476 27.8716 361.34C39.0699 360.718 50.4284 359.853 60.9904 355.752Z" fill="#000000" fill-rule="nonzero" opacity="1" stroke="none"/>
<path d="M423.546 348.995C424.506 346.577 427.257 345.781 429.66 345.482C440.12 344.18 450.754 346.617 461.207 345.236C462.463 345.07 463.718 344.849 464.984 344.845C468.395 344.834 471.948 346.671 473.463 350C474.577 352.447 474.462 355.476 473.284 357.888C472.106 360.299 469.928 362.07 467.503 362.763C465.391 363.366 463.166 363.191 460.989 363.011C450.572 362.152 440.039 361.268 430.103 357.752C428.242 357.093 426.348 356.304 424.95 354.812C423.552 353.32 422.768 350.951 423.546 348.995" fill="#000000" fill-rule="nonzero" opacity="1" stroke="none"/>
<path d="M71.4641 164.592C72.9041 166.081 73.9264 168.439 73.0839 170.397C72.2591 172.314 70.0859 172.975 68.1597 173.257C63.8377 173.888 59.4543 173.697 55.0973 173.505C48.2426 173.203 41.388 172.901 34.5333 172.599C33.3486 172.547 32.1525 172.493 31.0067 172.16C27.6122 171.176 25.0203 167.521 25.0539 163.694C25.0875 159.868 27.7801 156.246 31.2195 155.469C33.0741 155.05 34.9941 155.39 36.8621 155.731C38.6573 156.059 40.4526 156.387 42.2478 156.715C48.5665 157.868 54.8853 159.022 61.1941 160.239C64.8665 160.947 68.759 161.795 71.4641 164.592M71.4772 167.075C67.6283 162.543 61.5329 161.46 55.9156 160.637C51.3025 159.962 46.6894 159.286 42.0763 158.61C39.5946 158.247 37.0925 157.878 34.7305 156.972C31.5204 155.741 27.626 158.158 26.7797 161.749C25.9333 165.34 28.1065 169.387 31.3386 170.547C32.5691 170.989 33.882 171.059 35.1762 171.126C45.6987 171.664 56.2319 172.203 66.7628 171.923C68.1375 171.887 69.598 171.807 70.7275 170.952C71.857 170.098 72.411 168.175 71.4772 167.075Z" fill="#000000" fill-rule="nonzero" opacity="1" stroke="none"/>
<path d="M160.436 350.099C160.857 349.652 161.701 350 161.771 350.637C161.841 351.274 161.143 351.831 160.596 351.596C160.048 351.361 159.87 350.479 160.254 349.993L160.436 350.099Z" fill="#000000" fill-rule="nonzero" opacity="1" stroke="none"/>
<path d="M309.096 66.157C307.506 65.8207 306.3 64.2702 305.867 62.5706C305.434 60.871 305.658 59.0515 306.075 57.3474C307.037 53.4252 308.977 49.8893 310.774 46.3327C313.201 41.5291 315.404 36.5909 317.371 31.5438C318.264 29.2512 319.214 26.7933 321.13 25.4348C324.145 23.2975 328.865 25.4192 329.618 29.2508C330.108 31.7389 329.137 34.2654 328.149 36.571C324.447 45.2087 320.176 53.5576 315.382 61.5324C313.907 63.985 311.738 66.716 309.096 66.157" fill="#000000" fill-rule="nonzero" opacity="1" stroke="none"/>
<path d="M336.984 362.016C336.875 361.418 337.4 360.778 337.953 360.865C338.506 360.952 338.834 361.782 338.485 362.259C338.136 362.735 337.285 362.526 337.187 361.926L336.984 362.016Z" fill="#000000" fill-rule="nonzero" opacity="1" stroke="none"/>
<path d="M269.948 399.224C270.463 399.073 270.907 399.914 270.554 400.35C270.202 400.786 269.415 400.49 269.345 399.914C269.549 399.678 269.752 399.441 269.956 399.205L269.948 399.224Z" fill="#000000" fill-rule="nonzero" opacity="1" stroke="none"/>
<path d="M219.108 399.223C219.522 399.127 219.964 399.574 219.89 400.028C219.817 400.482 219.239 400.732 218.908 400.445C218.578 400.159 218.69 399.471 219.095 399.34L219.108 399.223Z" fill="#000000" fill-rule="nonzero" opacity="1" stroke="none"/>
<path d="M110 418.262C112.176 418.606 113.888 420.664 114.524 422.957C115.16 425.25 114.889 427.73 114.35 430.052C113.506 433.686 112.015 437.14 109.983 440.166C108.667 442.125 107.134 443.897 105.606 445.663C104.325 447.143 103.044 448.624 101.763 450.104C100.223 451.883 98.0264 453.822 95.9907 452.793C94.2112 451.893 93.8793 449.319 93.9505 447.183C94.2552 438.048 97.5427 429.064 103.09 422.206C104.885 419.987 107.314 417.836 110 418.262M110.158 419.927C107.972 419.282 105.862 421.124 104.366 422.977C98.8201 429.847 95.57 438.871 95.3475 448.017C95.3137 449.404 95.6111 451.172 96.8555 451.472C97.762 451.691 98.6044 450.95 99.2845 450.261C102.474 447.033 105.683 443.781 108.28 439.974C110.876 436.167 112.853 431.73 113.243 427.007C113.477 424.174 112.678 420.671 110.158 419.927Z" fill="#000000" fill-rule="nonzero" opacity="1" stroke="none"/>
<path d="M416.58 168.841C416.567 167.761 417.082 166.754 417.699 165.908C420.727 161.762 425.985 160.637 430.786 159.791C438.67 158.402 446.553 157.013 454.436 155.625C455.476 155.441 456.525 155.258 457.577 155.305C461.209 155.469 464.516 158.742 465.012 162.665C465.509 166.588 463.139 170.713 459.683 171.942C458.33 172.423 456.887 172.494 455.465 172.56C448.61 172.88 441.754 173.201 434.899 173.521C430.542 173.725 426.151 173.926 421.841 173.201C419.465 172.802 416.612 171.46 416.58 168.841" fill="#000000" fill-rule="nonzero" opacity="1" stroke="none"/>
<path d="M379.926 418.264C382.249 417.809 384.474 419.437 386.172 421.224C392.276 427.646 395.249 436.935 396.145 446.127C396.284 447.554 396.373 449.033 395.948 450.391C395.523 451.748 394.46 452.965 393.147 453.073C391.721 453.19 390.499 452.045 389.46 450.975C386.261 447.682 383.043 444.367 380.438 440.502C377.833 436.638 375.848 432.153 375.442 427.38C375.281 425.491 375.38 423.527 376.093 421.796C376.805 420.065 378.211 418.599 379.926 418.264" fill="#000000" fill-rule="nonzero" opacity="1" stroke="none"/>
<path d="M210.764 96.782C211.066 96.3661 211.059 95.7186 210.747 95.3107C210.433 95.7172 210.424 96.3665 210.726 96.7836L210.764 96.782ZM157.326 310.121C159.538 311.48 158.066 315.261 156.086 316.993C146.909 325.024 133.582 322.095 122.107 319.235C110.633 316.375 96.7475 314.755 88.8128 324.227C94.2032 336.163 103.397 346.011 114.444 351.681C116.461 352.716 118.63 353.693 119.993 355.616C121.356 357.539 121.458 360.772 119.572 362.068C113.845 366.006 112.074 374.731 114.133 381.759C116.193 388.787 121.293 394.288 126.842 398.518C141.606 409.772 160.87 413.737 178.385 409.128C166.295 404.895 162.233 387.553 150.992 381.117C140.786 375.272 132.177 366.165 126.516 355.223C124.82 351.946 128.518 347.888 131.96 348.199C135.401 348.511 138.112 351.395 140.505 354.107C145.427 359.685 150.349 365.263 155.271 370.84C155.825 366.324 156.379 361.809 156.933 357.293C157.179 355.284 157.849 352.789 159.696 352.543C160.519 352.433 161.323 352.853 162.018 353.347C168.082 357.661 168.714 366.798 170.575 374.423C173.211 385.224 179.595 394.887 188.159 401.04C196.823 395.413 202.981 385.769 205.847 375.233C207.169 370.372 207.835 365.331 208.497 360.312C209.303 354.192 210.086 347.782 208.173 341.961C206.26 336.14 200.705 331.236 195.182 332.659C191.754 333.542 189.183 336.526 186.251 338.652C182.722 341.21 177.931 342.517 174.279 340.175C170.627 337.832 169.916 330.889 173.736 328.889C179.473 325.886 185.324 322.844 191.626 321.876C197.929 320.909 204.87 322.33 209.377 327.226C209.796 308.987 210.216 290.747 210.635 272.508C210.789 265.828 210.912 258.947 208.716 252.708C206.52 246.47 201.4 240.96 195.269 240.754C191.373 240.623 187.694 242.585 184.311 244.694C180.929 246.804 177.551 249.154 173.718 249.928C169.886 250.703 165.394 249.465 163.421 245.803C161.448 242.141 163.668 236.287 167.566 236.327C175.552 236.409 182.515 230.372 190.38 228.862C197.633 227.47 205.454 230.285 210.517 236.11C210.652 208.224 210.787 180.338 210.923 152.452C200.344 155.086 187.079 156.719 180.672 147.178C178.881 144.51 177.98 140.671 179.7 137.948C181.42 135.225 186.292 135.627 186.71 138.902C187.204 142.777 191.818 143.845 195.408 143.974C200.697 144.165 205.985 144.355 211.273 144.546C210.707 128.739 211.484 112.875 213.593 97.2236C216.497 107.888 216.614 119.182 216.708 130.304C217.349 205.614 217.989 280.923 218.63 356.233C218.664 360.24 217.779 365.486 214.132 366.012C214.066 386.964 200.335 406.405 182.456 414.128C164.577 421.851 143.58 418.627 127.022 407.966C119.226 402.945 112.075 396.069 108.46 387.023C104.845 377.977 105.435 366.519 111.551 359.243C98.9884 352.023 88.1544 340.893 81.8152 327.047C75.4759 313.2 73.8797 296.611 78.5156 281.985C81.1132 273.79 86.0713 265.896 93.5201 262.842C86.3922 245.694 80.432 227.726 78.6314 209.004C76.8308 190.282 79.4543 170.634 88.4835 154.583C97.5128 138.532 113.489 126.629 130.76 125.999C134.643 98.0545 159.611 75.5308 185.538 76.584C191.824 76.8394 198.234 78.3956 203.394 82.3162C208.554 86.2368 212.27 92.8068 211.977 99.6527C204.974 83.6969 185.259 76.1373 170.625 83.7965C170.639 93.8512 177.395 103.446 186.307 106.065C190.04 107.162 188.887 114.089 185.236 115.476C181.585 116.863 177.672 114.735 174.302 112.672C173.41 119.967 171.698 127.144 169.218 133.99C167.857 137.748 165.934 141.752 162.447 143.126C158.96 144.5 154.146 140.988 155.446 137.205C160.851 121.477 162.519 104.245 160.245 87.6343C153.407 92.6413 146.772 98.3302 142.272 105.849C137.773 113.368 135.663 123.03 138.407 131.494C138.939 133.135 139.655 134.846 139.304 136.544C138.953 138.242 136.85 139.534 135.725 138.298C130.85 132.948 122.747 132.566 116.321 135.365C109.895 138.164 104.753 143.539 99.7863 148.789C103.317 161.173 110.026 173.482 120.978 178.564C136.18 185.619 155.35 177.016 169.444 186.412C172.145 188.212 174.677 190.999 174.796 194.447C174.915 197.894 171.294 201.277 168.567 199.523C159.185 193.487 147.488 191.89 137.029 195.218C139.972 212.358 141.774 229.731 142.417 247.155C139.703 248.867 136.716 245.413 135.351 242.337C130.816 232.112 128.669 220.643 129.167 209.3C129.406 203.855 126.213 198.861 122.347 195.399C118.481 191.937 113.891 189.575 109.831 186.388C100.763 179.267 94.6075 167.901 93.2729 155.81C80.0434 189.632 83.2522 230.506 101.561 261.39C102.927 263.693 104.431 266.183 104.228 268.915C104.025 271.647 101.033 274.143 98.9822 272.554C94.6024 269.16 88.9912 274.816 86.8603 280.191C82.4536 291.307 81.9409 304.194 85.4483 315.683C89.5259 309.086 96.9458 305.664 104.224 305.034C111.502 304.405 118.757 306.202 125.842 308.119C129.428 297.189 134.93 287.009 141.964 278.291C142.604 277.497 143.29 276.69 144.191 276.3C147.454 274.888 150.19 279.782 149.83 283.587C148.789 294.588 136.885 300.69 133.782 311.219C140.812 310.737 147.842 310.256 154.872 309.775C155.707 309.718 156.597 309.673 157.326 310.121" fill="#383738" fill-rule="nonzero" opacity="1" stroke="#825c30" stroke-linecap="round" stroke-linejoin="round" stroke-width="0.731905"/>
<path d="M280.071 442.057C280.251 442.945 280.408 443.878 280.181 444.752C279.953 445.627 279.219 446.412 278.387 446.336C277.853 446.287 277.398 445.909 276.982 445.54C269.945 439.305 264.3 431.221 260.661 422.169C259.903 420.283 259.231 418.356 258.672 416.39C254.253 400.837 257.165 384.072 260.107 368.11C250.461 372.644 239.134 372.744 229.422 368.379C229.815 370.981 230.208 373.583 230.6 376.185C232.171 386.595 233.746 397.196 232.41 407.644C230.588 421.898 223.308 434.968 213.431 444.525C212.191 445.724 210.091 446.805 209.102 445.355C208.56 444.559 208.762 443.448 208.999 442.492C211.378 432.938 215.004 423.816 218.653 414.75C223.895 401.723 222.021 386.797 220.566 372.663C220.298 370.056 220.049 367.397 220.532 364.826C221.015 362.255 222.35 359.743 224.51 358.582C227.986 356.716 232.031 358.821 235.718 360.118C241.267 362.07 247.365 362.121 252.94 360.262C255.111 359.538 257.213 358.531 259.447 358.091C261.681 357.651 264.154 357.855 265.961 359.353C269.025 361.895 268.988 366.838 268.661 371.018C268.211 376.752 267.762 382.487 267.313 388.221C267.075 391.268 266.836 394.325 266.943 397.381C267.497 413.078 276.956 426.719 280.071 442.057M278.566 441.788C275.856 433.23 272.791 424.804 269.384 416.546C264.557 404.847 265.536 391.409 266.61 378.636C266.816 376.181 267.023 373.726 267.229 371.271C267.537 367.605 267.54 363.19 264.735 361.137C261.898 359.061 258.147 360.784 254.914 361.988C248.403 364.412 241.162 364.439 234.635 362.065C231.232 360.827 227.235 359.036 224.344 361.351C221.717 363.454 221.738 367.659 222.019 371.198C222.492 377.163 222.965 383.127 223.438 389.092C223.665 391.954 223.892 394.823 223.816 397.695C223.387 414.038 213.405 428.243 210.347 444.25C210.283 444.581 210.259 445.007 210.53 445.174C210.782 445.329 211.089 445.129 211.318 444.934C222.438 435.483 229.804 420.962 231.232 405.676C232.244 394.838 230.4 383.949 228.507 373.251C228.135 371.149 227.808 368.784 228.929 367.027C238.858 372.104 250.879 372.048 260.768 366.879C261.401 369.224 261.013 371.735 260.613 374.14C259.02 383.705 257.291 393.364 257.816 403.068C258.709 419.584 266.497 435.511 278.581 445.534C279.308 444.499 278.956 443.021 278.566 441.788Z" fill="#000000" fill-rule="nonzero" opacity="1" stroke="none"/>
<path d="M360.07 303.591C373.194 296.659 390.108 299.419 400.792 310.234C403.973 298.205 402.938 284.913 397.943 273.639C395.848 268.911 390.528 264.011 386.873 267.434C384.891 269.291 381.595 266.843 381.329 264.009C381.063 261.176 382.632 258.574 384.051 256.182C402.343 225.354 405.561 184.544 392.363 150.769C390.781 163.857 383.62 176.017 373.358 183.038C369.401 185.745 364.949 187.785 361.752 191.497C350.633 204.41 360.14 229.783 347.344 240.699C346.795 241.167 346.178 241.608 345.482 241.658C343.183 241.82 342.587 238.256 342.856 235.764C344.503 220.516 346.423 205.303 348.615 190.137C338.179 186.803 326.502 188.381 317.13 194.391C314.358 196.169 310.694 192.682 310.865 189.183C311.035 185.683 313.658 182.903 316.432 181.127C330.967 171.82 350.645 180.818 365.851 172.882C374.759 168.233 380.512 158.521 384.442 148.65C384.948 147.379 385.442 146.018 385.259 144.647C385.014 142.814 383.641 141.443 382.353 140.234C377.705 135.869 372.887 131.398 367.046 129.346C361.205 127.293 354.018 128.262 350.136 133.44C349.294 134.562 347.456 133.788 346.951 132.448C346.445 131.108 346.808 129.591 347.104 128.179C350.924 109.927 340.536 89.4529 324.317 83.2663C322.152 99.9406 323.858 117.195 329.235 132.984C330.185 135.773 327.343 138.745 324.616 138.592C321.888 138.44 319.634 136.219 318.008 133.828C313.11 126.628 311.856 117.327 310.752 108.447C307.389 110.141 303.537 111.859 300.104 110.34C296.67 108.822 295.633 102.313 299.174 101.122C307.929 98.1766 314.585 88.955 315.147 78.9923C301.076 70.9727 281.538 77.8436 274.427 93.3126C273.169 92.8599 273.145 90.9285 273.515 89.5433C276.446 78.5446 287.802 72.7547 298.28 71.8156C324.697 69.4478 350.951 92.2227 354.747 120.799C364.691 121.462 374.439 125.302 382.473 131.721C399.429 145.27 407.452 169.19 407.426 192.098C407.401 215.006 400.347 237.203 392.068 258.262C398.149 259.689 402.453 265.653 405.092 271.788C411.463 286.602 410.94 304.426 404.855 319.383C398.771 334.34 387.46 346.436 374.188 354.092C379.213 361.214 380.735 371.104 378.115 379.621C375.548 387.968 369.462 394.497 362.843 399.545C347.636 411.141 327.976 416.447 309.978 411.499C291.98 406.55 276.373 390.551 272.793 370.709C272.096 366.849 271.715 362.608 269.237 359.745C266.956 357.109 266.855 353.095 266.888 349.473C267.613 269.737 268.338 190.002 269.063 110.267C269.118 104.229 269.276 97.8072 272.352 92.784C274.093 108.208 274.787 123.772 274.426 139.308C283.637 140.248 294.559 140.424 300.166 132.408C301.686 130.236 305.231 131.168 306.383 133.593C307.536 136.019 306.819 139.049 305.468 141.35C302.472 146.449 296.763 149.042 291.216 149.428C285.669 149.814 280.175 148.311 274.788 146.821C274.859 174.987 274.931 203.153 275.003 231.319C279.171 224.106 288.444 222.673 296.103 224.415C303.762 226.156 310.892 230.265 318.645 231.417C322.52 231.993 324.063 238.03 321.782 241.491C319.501 244.952 314.974 245.84 311.164 244.877C307.354 243.913 304.027 241.479 300.638 239.352C297.249 237.225 293.508 235.32 289.605 235.595C283.818 236.002 279.088 241.252 277.027 247.156C274.966 253.06 275.041 259.556 275.143 265.871C275.449 284.735 275.754 303.598 276.06 322.462C279.266 316.687 286.61 315.425 292.681 316.776C298.751 318.126 304.37 321.419 310.484 322.506C313.966 323.125 315.791 328.084 314.274 331.552C312.757 335.021 308.862 336.719 305.359 336.271C301.856 335.822 298.735 333.609 296.153 330.991C290.236 324.989 278.801 328.742 276.912 337.305C276.408 339.588 276.496 341.971 276.604 344.316C277.053 354.072 277.829 363.938 280.78 373.163C283.732 382.388 289.094 391.021 296.899 395.831C304.662 390.045 310.559 381.35 313.355 371.567C315.639 363.573 316.23 354.295 321.887 348.627C322.526 347.987 323.267 347.387 324.131 347.286C326.59 346.997 327.749 350.468 328.052 353.143C328.531 357.361 329.009 361.578 329.488 365.796C334.363 360.241 339.238 354.687 344.114 349.132C346.501 346.413 349.205 343.52 352.646 343.193C356.087 342.865 359.806 346.892 358.138 350.187C352.764 360.797 344.462 369.62 334.591 375.209C323.218 381.648 319.045 398.793 307.048 403.71C325.37 409.145 345.974 404.445 360.755 391.461C365.729 387.091 370.206 381.563 371.755 374.81C373.304 368.056 371.191 359.969 365.613 356.574C363.852 355.502 363.857 352.545 365.07 350.79C366.282 349.035 368.252 348.154 370.085 347.238C381.733 341.422 391.409 331.046 396.93 318.451C390.505 313.894 382.779 311.549 375.116 311.828C360.546 312.359 345.143 321.82 332.28 314.348C330.14 313.105 328.068 311.173 327.704 308.56C327.339 305.948 329.654 302.983 331.946 303.849C338.213 306.216 345.037 306.81 351.569 305.556C349.75 299.573 345.086 295.263 341.35 290.451C337.613 285.639 334.592 278.996 336.858 273.197C337.3 272.065 338.022 270.945 339.107 270.606C340.796 270.08 342.389 271.621 343.543 273.063C350.709 282.019 356.343 292.425 360.07 303.591M336.599 276.161C336.745 288.053 351.638 294.486 352.69 306.324C344.346 306.082 336.002 305.84 327.659 305.598C331.006 312.91 339.629 315.475 347.092 314.66C354.556 313.844 361.614 310.516 369.039 309.361C379.2 307.782 389.871 310.488 398.347 316.793C391.889 331.44 380.331 343.335 366.541 349.528C364.252 350.556 366.26 354.18 368.007 356.092C374.809 363.538 373.571 376.611 367.701 384.946C361.832 393.281 352.605 397.872 343.571 401.544C330.722 406.768 315.306 410.458 304.094 401.854C312.45 397.504 319.455 390.141 323.745 381.2C325.962 376.577 330.768 374.353 334.955 371.822C343.827 366.462 351.239 358.277 356.038 348.54C357.185 346.213 354.602 343.398 352.184 343.582C349.765 343.767 347.824 345.739 346.102 347.599C340.035 354.152 333.968 360.704 327.901 367.257C327.088 360.583 325.881 353.966 324.291 347.46C317.902 350.497 316.989 359.658 315.376 367.045C312.786 378.906 305.922 389.594 296.581 396.31C285.503 389.674 277.791 376.791 276.684 363.072C276.059 355.324 273.672 347.677 274.386 339.938C275.101 332.199 280.559 324.025 287.673 324.688C291.289 325.025 294.376 327.521 297.377 329.744C300.377 331.966 303.832 334.084 307.424 333.517C311.015 332.95 314.099 328.301 312.149 324.967C309.745 320.855 303.473 323.131 299.823 320.309C291.96 314.23 280.269 320.135 274.551 328.592C274.259 306.777 273.463 281.194 273.171 259.38C273.111 254.944 273.066 250.403 274.396 246.211C277.535 236.31 289.046 230.733 297.897 234.825C301.271 236.384 304.114 239.048 307.375 240.871C310.635 242.694 314.754 243.58 317.866 241.47C320.977 239.36 321.583 233.395 318.283 231.66C316.813 230.887 315.09 231.133 313.459 231.048C308.412 230.785 304.059 227.282 299.298 225.437C290.293 221.948 279.47 224.994 273.144 232.799C272.873 203.747 272.602 174.696 272.331 145.644C278.148 144.33 284.13 146.263 290.069 146.417C296.008 146.571 302.949 143.912 304.482 137.66C304.934 135.815 304.756 133.614 303.455 132.333C302.155 131.052 299.611 131.443 299.153 133.287C297.89 138.37 291.949 139.952 287.125 139.619C282.3 139.286 277.039 138.077 272.941 140.871C272.119 126.089 271.298 111.306 270.476 96.5233C269.122 181.506 268.153 266.495 267.569 351.488C267.554 353.655 267.773 356.268 269.544 357.256C270.574 357.831 272.2 358.046 272.191 359.308C272.038 379.878 285.576 399.043 303.168 406.519C320.761 413.996 341.353 410.616 357.549 400.039C365.127 395.089 372.098 388.327 375.446 379.419C378.795 370.511 377.752 359.214 371.28 352.661C383.738 345.665 394.606 334.935 401.145 321.431C407.684 307.926 409.639 291.598 405.34 277.066C402.733 268.25 397.169 259.653 388.932 257.358C398.71 239.009 404.271 218.016 404.97 196.813C405.552 179.153 402.596 160.859 393.604 146.15C384.613 131.44 368.877 120.963 352.695 122.204C351.454 107.151 344.235 92.7952 333.258 83.5516C322.282 74.308 307.71 70.3136 294.024 72.7968C285.008 74.4328 275.39 80.1506 273.647 89.9254C281.604 74.3125 302.048 68.1825 316.218 77.1607C315.962 84.9581 312.178 92.5261 306.305 96.9916C302.693 99.7377 298.022 101.803 296.644 106.361C301.439 108.065 306.836 107.663 311.374 105.262C311.608 114.014 313.762 122.698 317.605 130.388C318.758 132.694 320.276 135.093 322.608 135.759C324.939 136.426 327.9 134.083 327.1 131.605C321.753 115.04 320.027 97.1019 322.105 79.6886C340.959 86.1664 352.934 110.379 347.529 131.095C352.804 125.123 361.719 124.586 368.81 127.587C375.901 130.589 381.598 136.451 387.099 142.174C382.773 154.523 376.903 167.508 365.978 173.256C351.8 180.716 334.144 173.369 319.52 179.723C314.638 181.844 309.863 188.255 313.167 192.707C324.075 185.865 337.566 184.097 349.652 187.927C346.636 205.012 344.738 222.33 343.977 239.708C351.105 235.055 352.912 224.797 353.369 215.759C353.825 206.721 353.933 196.777 359.428 189.987C362.979 185.6 368.19 183.353 372.694 180.169C382.909 172.948 389.641 160.193 390.231 146.943C394.416 150.856 396.391 156.845 397.787 162.657C405.442 194.514 400.292 229.764 383.937 257.458C382.987 259.068 381.957 260.839 382.176 262.738C382.395 264.638 384.655 266.215 385.953 264.925C389.736 261.166 395.598 265.997 398.033 270.905C404.273 283.487 404.918 299.19 399.734 312.329C395.939 305.17 388.352 301.122 380.803 300.287C373.253 299.451 365.679 301.41 358.44 303.889C354.621 292.428 348.77 281.774 341.305 272.689C341.038 272.365 340.763 272.036 340.414 271.823C338.465 270.63 336.569 273.726 336.599 276.161Z" fill="#000000" fill-rule="nonzero" opacity="1" stroke="#161515" stroke-linecap="round" stroke-linejoin="round" stroke-width="0.731905"/>
</g>
</svg>
