<?xml version="1.0" encoding="UTF-8" standalone="no"?>
<!DOCTYPE svg PUBLIC "-//W3C//DTD SVG 1.1//EN" "http://www.w3.org/Graphics/SVG/1.1/DTD/svg11.dtd">
<!-- Created with Vectornator (http://vectornator.io/) -->
<svg height="100%" stroke-miterlimit="10" style="fill-rule:nonzero;clip-rule:evenodd;stroke-linecap:round;stroke-linejoin:round;" version="1.1" viewBox="0 0 220 270" width="100%" xml:space="preserve" xmlns="http://www.w3.org/2000/svg" xmlns:vectornator="http://vectornator.io" xmlns:xlink="http://www.w3.org/1999/xlink">
<defs/>
<g id="Untitled" vectornator:layerName="Untitled">
<g opacity="1">
<path d="M196.306 135.146C194.046 137.512 189.572 137.484 187.347 135.09C185.254 132.84 185.366 129.438 186.153 126.536C186.94 123.635 188.288 120.807 188.277 117.812C188.264 114.282 186.364 111.015 184.265 108.095C178.679 100.324 170.879 93.5196 161.272 91.1091C161.124 91.9568 160.956 92.8469 160.382 93.5126C159.807 94.1783 158.682 94.5019 157.972 93.9643C157.224 93.3971 157.348 92.3059 157.559 91.4213C158.137 88.9861 159.073 86.2868 161.454 85.2066C162.942 84.5319 164.676 84.654 166.322 84.7643C171.872 85.1364 177.445 85.2058 183.003 84.9722C185.287 84.8761 187.816 84.8011 189.572 86.1858C191.301 87.5494 191.694 89.8726 191.958 91.986C192.84 99.0254 193.584 106.08 194.191 113.145C194.39 115.463 194.577 117.797 195.2 120.047C195.911 122.613 197.179 125.025 197.778 127.616C198.377 130.208 198.186 133.177 196.306 135.146M185.476 103.87C184.769 98.7587 183.876 93.67 182.798 88.6164C177.086 88.6277 171.373 88.639 165.661 88.6503C166.579 89.631 167.969 90.0559 169.251 90.5552C175.943 93.1637 180.854 98.6054 185.476 103.87Z" fill="#f3f3f3" fill-rule="nonzero" opacity="1" stroke="none" vectornator:layerName="path"/>
<path d="M185.465 204.741C190.357 199.832 197.299 196.903 204.407 196.32C206.551 196.144 209.538 196.496 209.847 198.529C211.25 207.782 202.655 221.754 199.059 233.366C197.914 237.064 196.764 240.78 196.246 244.601C195.85 247.513 194.392 250.523 191.611 251.833C188.831 253.143 184.727 251.865 184.155 248.979C183.6 246.184 186.331 243.787 189.026 242.523C177.005 242.468 164.984 242.412 152.964 242.356C152.253 242.353 151.514 242.356 150.873 242.647C150.233 242.938 149.726 243.61 149.894 244.263C150.349 246.031 148.859 247.948 146.965 248.279C145.071 248.61 143.076 247.504 142.225 245.872C141.374 244.239 141.582 242.22 142.519 240.63C143.456 239.04 145.048 237.856 146.801 237.103C147.83 236.661 148.952 236.351 150.079 236.43C150.951 236.491 151.79 236.781 152.66 236.865C153.992 236.992 155.317 236.63 156.591 236.24C170.242 232.063 182.599 224.179 191.8 213.774C189.928 215.043 187.713 216.379 185.485 215.826C183.196 215.257 181.899 212.76 182.15 210.537C182.401 208.313 183.843 206.368 185.465 204.741M166.251 237.244C167.642 237.684 169.139 237.688 170.606 237.688C175.971 237.686 181.337 237.684 186.702 237.682C187.246 237.682 187.839 237.666 188.255 237.335C188.604 237.056 188.748 236.617 188.875 236.202C190.88 229.663 192.886 223.124 194.891 216.585C186.729 224.991 176.984 232.02 166.251 237.244Z" fill="#f3f3f3" fill-rule="nonzero" opacity="1" stroke="none" vectornator:layerName="path"/>
<path d="M96.5066 185.972C97.4054 183.789 97.4148 181.384 97.4123 179.042C97.4004 167.913 97.3885 156.784 97.3766 145.655C96.2696 147.051 94.6953 148.616 92.9093 148.173C91.5625 147.839 90.7897 146.383 90.9108 145.072C91.0319 143.761 91.8436 142.597 92.7584 141.605C95.3641 138.779 99.0386 136.851 102.955 136.257C104.127 136.079 105.444 136.051 106.369 136.755C107.53 137.639 107.585 139.263 107.541 140.672C107.4 145.212 107.259 149.752 107.118 154.292C107.104 154.726 107.108 155.207 107.416 155.53C107.734 155.862 108.261 155.906 108.735 155.925C115.699 156.213 122.681 156.138 129.636 155.701C134.683 155.384 139.815 154.852 144.433 152.904C151.38 149.975 156.679 143.778 158.251 136.744C157.361 138.341 154.771 138.622 153.312 137.458C151.852 136.293 151.584 134.123 152.421 132.501C153.258 130.878 155.002 129.791 156.849 129.331C158.111 129.017 159.493 128.97 160.688 129.466C161.883 129.963 162.838 131.081 162.836 132.314C162.816 147.18 162.795 162.045 162.775 176.911C162.774 178.117 162.8 179.411 163.542 180.393C165.937 183.566 166.069 188.117 163.861 191.409C162.958 192.754 161.639 193.923 160.011 194.338C158.383 194.752 156.442 194.261 155.524 192.924C154.876 191.981 154.807 190.782 154.951 189.666C155.279 187.104 156.655 184.675 158.728 182.996C157.217 176.567 154.728 169.955 149.388 165.722C142.737 160.45 133.311 160.049 124.632 159.898C119.826 159.815 115.019 159.732 110.213 159.648C108.776 159.623 106.819 160.067 106.889 161.424C107.261 168.589 107.634 175.755 108.006 182.92C108.138 185.457 108.207 188.209 106.653 190.281C105.25 192.15 102.783 193.058 100.379 193.359C98.4815 193.598 96.1726 193.316 95.2887 191.711C94.2999 189.916 95.7298 187.858 96.5066 185.972M153.098 165.844C154.095 166.654 155.099 167.572 156.387 167.824C156.392 163.438 156.397 159.052 156.401 154.666C156.402 154.137 156.185 153.412 155.63 153.48C152.483 156.462 148.536 158.684 144.263 159.88C143.986 159.958 143.688 160.043 143.511 160.259C143.333 160.475 143.374 160.864 143.651 160.943C147.114 161.934 150.354 163.615 153.098 165.844Z" fill="#f3f3f3" fill-rule="nonzero" opacity="1" stroke="none" vectornator:layerName="path"/>
<path d="M59.5417 140.999C57.9971 141.815 56.0422 141.895 54.4285 141.21C55.4007 137.938 56.4703 134.507 59.0407 132.131C61.6111 129.755 66.1956 128.963 68.7172 131.386C71.0297 133.607 70.5937 137.176 70.9245 140.276C71.5633 146.263 75.9364 151.76 81.8442 154.003C82.0734 139.794 81.8424 125.578 81.1517 111.382C80.961 107.464 80.7175 103.467 79.1918 99.8187C77.6661 96.1707 74.6161 92.8693 70.5813 91.949C68.6195 95.4032 69.2554 99.6011 69.9201 103.471C70.5849 107.34 71.1659 111.559 69.1205 114.97C67.0751 118.38 61.2324 119.842 58.8244 116.65C57.1681 114.454 57.9433 111.449 58.621 108.829C60.8908 100.056 61.2773 90.8508 59.7504 81.9349C58.5139 82.3114 57.1238 82.2144 55.9593 81.6703C58.0313 76.6181 63.7542 73.1263 69.4793 73.4213C69.8552 77.1065 70.2312 80.7917 70.6071 84.4769C84.896 85.9994 100.129 87.2902 112.958 81.1527C126.181 74.8269 134.631 60.5443 133.41 46.586C132.189 32.6276 121.372 19.8503 107.229 15.6624C109.773 16.9481 108.433 21.3107 105.565 21.601C102.697 21.8914 100.305 18.8696 100.756 16.1772C101.208 13.4848 103.761 11.4437 106.527 10.6698C109.293 9.89584 112.253 10.1551 115.113 10.5053C126.038 11.8424 137.158 14.5759 145.774 21.0617C156.645 29.2447 162.248 43.237 159.834 56.1714C157.42 69.1058 147.089 80.4418 133.912 84.6159C137.127 84.2468 140.414 83.8802 143.581 84.5228C146.748 85.1655 149.829 87.0152 150.977 89.8779C152.124 92.7405 150.649 96.5399 147.528 97.359C144.407 98.1781 140.851 94.7134 142.362 92.0055C143.534 89.9041 139.896 88.4683 137.384 88.5519C127.854 88.8692 116.744 90.0386 111.78 97.7327C106.825 105.414 110.712 115.753 107.117 124.083C105.957 126.769 103.66 129.353 100.6 129.591C97.5412 129.829 94.5035 126.385 96.2073 123.972C100.151 118.387 97.5796 110.894 98.5964 104.25C99.6072 97.6442 104.592 91.7138 111.171 89.2885C98.6966 89.5103 86.2218 89.7322 73.7471 89.9541C78.3648 90.4409 82.094 94.0207 83.8767 98.0756C85.6594 102.13 85.8506 106.63 85.9816 111.019C86.432 126.113 86.4583 141.219 86.0606 156.315C90.3359 156.505 94.5165 158.214 97.5919 161.027C93.6718 161.38 89.7516 161.733 85.8315 162.087C85.8733 179.656 85.9152 197.225 85.957 214.794C85.9677 219.268 85.9627 223.837 84.4457 228.076C82.9288 232.314 79.5995 236.238 75.0235 237.385C86.4937 237.487 97.9638 237.589 109.434 237.691C106.328 234.918 103.222 232.145 100.116 229.372C98.7118 232.943 92.0982 231.375 91.3442 227.632C90.5902 223.889 93.8251 220.388 97.4336 218.687C101.789 216.635 108.757 217.508 109.342 222.074C110.414 230.438 118.91 237.34 127.82 237.086C130.696 237.004 134.024 236.413 136.08 238.314C138.223 240.295 137.375 243.965 135.099 245.808C132.823 247.651 129.282 249.253 127.234 248.657C126.092 248.324 125.538 247.933 125.757 245.814C126.069 242.795 129.087 242.705 129.087 242.705C110.85 242.56 92.6122 242.415 74.3746 242.27C69.5053 242.232 63.3375 243.055 62.0177 247.485C61.3502 249.726 62.2912 252.138 61.8949 254.436C61.1501 258.754 55.3005 261.209 51.0861 259.398C46.8716 257.588 44.8546 252.548 46.0007 248.309C47.1469 244.071 50.928 240.761 55.2479 239.188C61.6313 236.863 69.3656 237.758 74.7788 233.806C80.6817 229.495 81.2411 221.419 81.2915 214.369C81.4168 196.835 81.5422 179.301 81.6675 161.767C64.518 161.741 47.3685 161.714 30.2189 161.687C27.2433 161.683 22.9948 163.568 24.5309 165.976C27.2871 170.297 22.5032 176.608 17.205 175.987C11.9067 175.366 8.71349 168.909 11.1307 164.411C15.2834 156.682 27.919 158.796 35.441 153.836C42.5406 149.155 43.2387 139.651 43.2465 131.47C43.2738 102.558 43.3012 73.6466 43.3286 44.735C43.3372 35.6311 42.6585 25.1465 34.9671 19.665C33.2633 18.4508 31.1214 17.5491 29.0294 17.9464C26.9373 18.3437 25.1662 20.4717 25.8792 22.3724C27.0905 25.6013 25.7149 29.5272 22.7038 31.4347C19.6928 33.3423 15.3274 33.0533 12.6271 30.7678C7.24599 26.2131 10.8019 17.0201 17.2462 13.935C23.6904 10.85 31.3575 11.8436 38.55 12.4791C53.931 13.8382 69.5085 13.1959 84.7058 10.5759C89.1067 9.81724 94.5496 9.25112 97.1958 12.6598C98.9921 14.9737 98.6068 18.1842 97.7982 20.9504C97.0653 23.4575 95.8984 26.0701 93.5382 27.4082C91.1781 28.7463 87.4119 27.9904 86.7289 25.4708C85.6463 21.4766 92.4519 19.0163 92.5134 14.8935C84.67 12.8589 76.3727 18.2425 72.8538 25.1725C69.335 32.1024 69.451 40.1264 69.8032 47.8058C69.954 51.0942 70.072 54.6209 68.2058 57.4002C66.3396 60.1794 61.6482 61.4557 59.3642 58.9707C56.7755 56.1542 59.3079 51.9551 60.2018 48.3213C61.2177 44.192 59.8763 39.8995 59.8514 35.6601C59.8036 27.4913 65.1408 19.5091 72.9682 16.0431C60.3721 16.2463 47.7761 16.4494 35.18 16.6526C40.3416 18.2507 43.9828 22.8139 45.6603 27.696C47.3378 32.5781 47.3568 37.8106 47.3599 42.9436C47.3772 71.4003 47.3944 99.8569 47.4117 128.314C47.418 138.813 46.5482 151.003 37.4634 157.047C48.6462 156.894 59.8289 156.74 71.0116 156.587C64.661 153.773 60.1227 147.605 59.5417 140.999M115.321 84.7479C122.062 83.1122 128.72 80.7929 134.363 76.9433C142.981 71.0634 148.805 61.5691 149.614 51.5529C150.423 41.5366 146.1 31.2014 138.061 24.6295C131.835 19.5401 123.787 16.8185 115.688 15.4271C116.583 16.537 117.961 17.1798 119.241 17.8745C126.025 21.5542 131.179 27.668 134.003 34.5614C136.827 41.4548 137.394 49.0816 136.198 56.3866C134.973 63.8705 131.82 71.2223 126.283 76.6969C123.079 79.8653 119.183 82.3202 115.321 84.7479Z" fill="#f3f3f3" fill-rule="nonzero" opacity="1" stroke="none" vectornator:layerName="path"/>
</g>
</g>
<g id="Layer-1" vectornator:layerName="Layer 1" visibility="hidden">
<path d="M169.892 80.1404L154.88 80.1404L205.055 134.834L154.88 189.86L169.892 189.86L220 135.054" fill="#f3f3f3" fill-rule="nonzero" opacity="1" stroke="none"/>
<path d="M50.1082 80.1404L65.1205 80.1404L14.9452 134.834L65.1205 189.86L50.1082 189.86L0 135.054" fill="#f3f3f3" fill-rule="nonzero" opacity="1" stroke="none"/>
</g>
</svg>
